<svg width="40" height="40" viewBox="0 0 40 40" fill="none" xmlns="http://www.w3.org/2000/svg">
  <!-- Bowl -->
  <path d="M8 18C8 18 8 28 20 28C32 28 32 18 32 18H8Z" fill="#EA580C" stroke="#C2410C" stroke-width="1.5" stroke-linecap="round" stroke-linejoin="round"/>
  
  <!-- Soup surface -->
  <ellipse cx="20" cy="18" rx="12" ry="3" fill="#F97316" opacity="0.8"/>
  
  <!-- Steam lines -->
  <path d="M14 12C14 12 14 8 16 8C16 8 16 10 14 12Z" stroke="#EA580C" stroke-width="1.5" stroke-linecap="round" fill="none" opacity="0.6"/>
  <path d="M20 10C20 10 20 6 22 6C22 6 22 8 20 10Z" stroke="#EA580C" stroke-width="1.5" stroke-linecap="round" fill="none" opacity="0.6"/>
  <path d="M26 12C26 12 26 8 28 8C28 8 28 10 26 12Z" stroke="#EA580C" stroke-width="1.5" stroke-linecap="round" fill="none" opacity="0.6"/>
  
  <!-- Bowl shadow/depth -->
  <path d="M10 18C10 18 12 26 20 26C28 26 30 18 30 18" stroke="#C2410C" stroke-width="1" opacity="0.3" stroke-linecap="round"/>
  
  <!-- Decorative line on bowl -->
  <path d="M9 19.5H31" stroke="#F97316" stroke-width="0.5" opacity="0.4"/>
</svg>

