<svg width="60" height="60" xmlns="http://www.w3.org/2000/svg">
  <g fill="currentColor" fill-rule="nonzero">
    <path d="M15 15a5 5 0 110-10 5 5 0 010 10zm0-8a3 3 0 100 6 3 3 0 000-6z"/>
    <path d="M45 15a5 5 0 110-10 5 5 0 010 10zm0-8a3 3 0 100 6 3 3 0 000-6z"/>
    <path d="M15 45a5 5 0 110-10 5 5 0 010 10zm0-8a3 3 0 100 6 3 3 0 000-6z"/>
    <path d="M45 45a5 5 0 110-10 5 5 0 010 10zm0-8a3 3 0 100 6 3 3 0 000-6z"/>
    <path d="M30 30a5 5 0 110-10 5 5 0 010 10zm0-8a3 3 0 100 6 3 3 0 000-6z"/>
    <path d="M30 60a5 5 0 110-10 5 5 0 010 10zm0-8a3 3 0 100 6 3 3 0 000-6z"/>
    <path d="M30 10a5 5 0 110-10 5 5 0 010 10zm0-8a3 3 0 100 6 3 3 0 000-6z"/>
    <path d="M60 30a5 5 0 110-10 5 5 0 010 10zm0-8a3 3 0 100 6 3 3 0 000-6z"/>
    <path d="M10 30a5 5 0 110-10 5 5 0 010 10zm0-8a3 3 0 100 6 3 3 0 000-6z"/>
  </g>
</svg>