<svg width="64" height="64" viewBox="0 0 64 64" fill="none" xmlns="http://www.w3.org/2000/svg">
  <!-- Brown/Terracotta Bowl -->
  <ellipse cx="32" cy="40" rx="24" ry="8" fill="#8B4513"/>
  <path d="M8 32C8 36 18 40 32 40S56 36 56 32H8Z" fill="#A0522D"/>
  
  <!-- Bowl Rim -->
  <ellipse cx="32" cy="32" rx="24" ry="2" fill="#8B4513"/>
  
  <!-- Orange-Red Soup -->
  <ellipse cx="32" cy="38" rx="20" ry="6" fill="#FF6347"/>
  
  <!-- Dark Green Specks (Herbs/Spices) -->
  <circle cx="20" cy="36" r="1.5" fill="#228B22"/>
  <circle cx="28" cy="37" r="1" fill="#228B22"/>
  <circle cx="36" cy="36" r="1.5" fill="#228B22"/>
  <circle cx="44" cy="37" r="1" fill="#228B22"/>
  
  <!-- Reddish Chunks (Shrimp/Ingredients) -->
  <ellipse cx="24" cy="39" rx="2" ry="1" fill="#DC143C"/>
  <ellipse cx="40" cy="39" rx="2" ry="1" fill="#DC143C"/>
  
  <!-- Silver Spoon -->
  <rect x="30" y="25" width="2" height="15" fill="#C0C0C0"/>
  <ellipse cx="31" cy="25" rx="3" ry="1.5" fill="#C0C0C0"/>
  <ellipse cx="31" cy="40" rx="4" ry="2" fill="#C0C0C0"/>
  
  <!-- Steam Lines -->
  <path d="M26 20C26 18 28 16 30 18" stroke="#E6E6FA" stroke-width="2" stroke-linecap="round"/>
  <path d="M32 18C32 16 34 14 36 16" stroke="#E6E6FA" stroke-width="2" stroke-linecap="round"/>
  <path d="M38 20C38 18 40 16 42 18" stroke="#E6E6FA" stroke-width="2" stroke-linecap="round"/>
  
  <!-- Brown Saucer -->
  <ellipse cx="32" cy="48" rx="28" ry="4" fill="#8B4513"/>
</svg> 